<?xml version="1.0" encoding="utf-8"?>
<!-- Generator: Adobe Illustrator 19.1.0, SVG Export Plug-In . SVG Version: 6.00 Build 0)  -->
<!DOCTYPE svg PUBLIC "-//W3C//DTD SVG 1.0//EN" "http://www.w3.org/TR/2001/REC-SVG-20010904/DTD/svg10.dtd">
<svg version="1.0" xmlns="http://www.w3.org/2000/svg" xmlns:xlink="http://www.w3.org/1999/xlink" x="0px" y="0px" width="354.7px"
	 height="386.2px" viewBox="0 0 354.7 386.2" enable-background="new 0 0 354.7 386.2" xml:space="preserve">
<g id="Layer_1">
</g>
<g id="Layer_2">
</g>
<g id="Layer_3">
</g>
<g id="Layer_4">
</g>
<g id="Layer_5">
	<g>
		<path fill="#203B6A" d="M27.7,238.6c2.8-0.9,4.5-3.8,4.5-6.9c0-4.8-3.7-8.1-10-8.1H8.3v31h14.3c6.7,0,10.9-3.5,10.9-8.5
			C33.6,242.7,31.7,239.4,27.7,238.6z M13.3,228.6h8.1c3.7,0,5.6,1.4,5.6,3.8c0,2.6-2,4.2-5.8,4.2h-8V228.6z M22.4,249.6h-9.1v-8
			h9.3c3.5,0,5.7,1.3,5.7,3.8C28.3,247.7,26.4,249.6,22.4,249.6z"/>
		<polygon fill="#203B6A" points="49.3,223.6 43.3,223.6 43.3,254.6 65.3,254.6 65.3,249.6 49.3,249.6 		"/>
		<path fill="#203B6A" d="M93.3,240.8c0,5.4-3.2,9.1-8,9.1c-4.8,0-8-3.7-8-9.1v-17.2h-5v17.2c0,8.7,5,14.1,13,14.1
			c8,0,13-5.4,13-14.1v-17.2h-5V240.8z"/>
		<polygon fill="#203B6A" points="110.3,254.6 132.3,254.6 132.3,249.6 115.3,249.6 115.3,241.6 130.3,241.6 130.3,236.6 
			115.3,236.6 115.3,228.6 132.3,228.6 132.3,223.6 110.3,223.6 		"/>
		<path fill="#203B6A" d="M181.5,247.6l2.8,7h5.6l-13.2-31h-5l-13.3,31h5.7l2.8-7H181.5z M174.2,230.4l5.2,12.3h-10.3L174.2,230.4z"
			/>
		<path fill="#203B6A" d="M221.8,234c0-6.1-4.9-10.3-11.7-10.3h-12.7v31h6v-10h5.6l8.2,10h6.5l-8.8-11
			C219.1,242.2,221.8,238.5,221.8,234z M203.3,239.6v-11h6.6c3.7,0,6.7,2.3,6.7,5.5c0,3.2-2.9,5.5-6.7,5.5H203.3z"/>
		<path fill="#203B6A" d="M256.7,234c0-6.1-4.9-10.3-11.7-10.3h-12.6v31h6v-10h5.5l8.2,10h6.5l-8.8-11
			C253.9,242.2,256.7,238.5,256.7,234z M238.3,239.6v-11h6.4c3.7,0,6.7,2.3,6.7,5.5c0,3.2-2.9,5.5-6.7,5.5H238.3z"/>
		<path fill="#203B6A" d="M280.5,223.4c-8.7,0-15.7,7-15.7,15.7s7,15.7,15.7,15.7s15.7-7,15.7-15.7S289.2,223.4,280.5,223.4z
			 M280.5,249.9c-5.9,0-10.3-4.8-10.3-10.8s4.4-10.8,10.3-10.8c5.9,0,10.4,4.8,10.4,10.8S286.4,249.9,280.5,249.9z"/>
		<polygon fill="#203B6A" points="341.1,223.6 334,245.7 326.5,223.6 322,223.6 314.5,245.7 307.4,223.6 301.8,223.6 311.8,254.6 
			317.1,254.6 324.2,233.9 331.4,254.6 336.7,254.6 346.7,223.6 		"/>
		<path fill="#203B6A" d="M148.3,320.2v2.4h21v-4h-13.1l6.2-7.2c3.9-4.5,6-7,6-10.3c0-4.8-3.8-9.1-10.4-9.1
			c-6.4,0-10.2,3.6-10.4,9.6h5.3c0.3-3,2.2-5,5.3-5c3.4,0,4.8,2.3,4.8,4.4c0,2.5-2.3,4.6-5.3,8.1L148.3,320.2z"/>
		<path fill="#203B6A" d="M190.6,292.1c-8.5,0-13.5,6.7-13.5,15.8s5,15.8,13.5,15.8c8.5,0,13.4-6.7,13.4-15.8
			S199.1,292.1,190.6,292.1z M190.6,318.8c-5.4,0-8.1-4.8-8.1-11s2.7-11,8.1-11c5.4,0,8.1,4.8,8.1,11S196,318.8,190.6,318.8z"/>
		<polygon fill="#203B6A" points="164.3,343.6 161.2,343.6 151.3,347.1 151.3,351.6 159.3,349.2 159.3,369.6 151.3,369.6 
			151.3,373.6 171.3,373.6 171.3,369.6 164.3,369.6 		"/>
		<path fill="#203B6A" d="M190,353.6h-0.6l6.2-10h-6.2l-8.4,12.7c-1.7,2.7-2.7,4.8-2.7,7.4c0,5.9,4.8,10.6,11.6,10.6
			c6.8,0,11.6-4.4,11.6-10.5C201.6,357.8,196.8,353.6,190,353.6z M190,370.1c-3.8,0-6.5-2.8-6.5-6.1c0-1.6,0.6-2.8,2-4.7l0,0
			c1.2-0.9,2.7-1.4,4.5-1.4c3.8,0,6.4,2.8,6.4,6.1C196.4,367.3,193.8,370.1,190,370.1z"/>
		<path fill="#203B6A" d="M231.1,30.6C216.5,15.9,197,7.9,176.3,7.9c-20.7,0-40.2,8.1-54.8,22.7c-30.2,30.2-30.2,79.4,0,109.6
			c15.1,15.1,35,22.7,54.8,22.7c19.8,0,39.7-7.6,54.8-22.7C261.3,109.9,261.3,60.8,231.1,30.6z M138.5,82.7l-22.7-31.5
			c2.4-4.2,5.2-8.2,8.5-11.9l31.1,43.1L138.5,82.7z M111.8,59.4l19.6,27.2l-18.8,26.6c-3.8-8.6-5.8-18.1-5.8-27.8
			C106.8,76.3,108.5,67.5,111.8,59.4z M116.7,121.2l21.5-30.5l17.4-0.3l-30,42.4C122.2,129.2,119.2,125.3,116.7,121.2z M225.5,134.5
			c-13.1,13.1-30.6,20.4-49.1,20.4c-16.6,0-32.3-5.8-44.9-16.4l34.1-48.2l23-0.4l-22,29.5l75.6-34L166.6,52l21.8,29.8l-23.4,0.4
			L130,33.5c12.8-11.4,29-17.7,46.3-17.7c18.6,0,36,7.2,49.1,20.4c13.1,13.1,20.4,30.6,20.4,49.1
			C245.8,103.9,238.6,121.4,225.5,134.5z M201.4,85.9l-10.7-14.6l31.8,14l-31.1,14L201.4,85.9z"/>
	</g>
</g>
<g id="Layer_6">
</g>
</svg>
